<svg width="528" height="466" viewBox="0 0 528 466" fill="none" xmlns="http://www.w3.org/2000/svg">
<path fill-rule="evenodd" clip-rule="evenodd" d="M0 254.571C0 326.857 25.1429 387.514 75.4286 436.543C86.6781 447.237 98.5107 456.749 110.926 465.081C152.888 433.068 205.813 413.974 263.336 413.974C321.021 413.974 374.083 433.176 416.1 465.352C428.555 456.956 440.397 447.353 451.629 436.543C502.543 387.514 528 326.857 528 254.571C528 182.286 502.543 121.943 451.629 73.5429C401.343 24.5143 338.8 0 264 0C189.2 0 126.343 24.5143 75.4286 73.5429C25.1429 121.943 0 182.286 0 254.571ZM156.514 254.571C156.514 221.257 166.571 193.6 186.686 171.6C207.429 148.971 233.2 137.657 264 137.657C294.8 137.657 320.257 148.971 340.371 171.6C361.114 193.6 371.486 221.257 371.486 254.571C371.486 287.886 361.114 315.857 340.371 338.486C320.257 360.486 294.8 371.486 264 371.486C233.2 371.486 207.429 360.486 186.686 338.486C166.571 315.857 156.514 287.886 156.514 254.571Z" fill="#060B10"/>
</svg>
